Coordinates
version=1
nRows=10
nColumns=46
inDegrees=yes

Units are S.I. units (second, meters, Newtons, ...)
Angles are in degrees.

endheader
time	pelvis_tilt	pelvis_list	pelvis_rotation	pelvis_tx	pelvis_ty	pelvis_tz	bb_angle	bb_tx	bb_ty	bb_tz	hip_flexion_r	hip_adduction_r	hip_rotation_r	knee_angle_r	knee_angle_r_beta	ankle_angle_r	subtalar_angle_r	mtp_angle_r	crank_angle_r	hip_flexion_l	hip_adduction_l	hip_rotation_l	knee_angle_l	knee_angle_l_beta	ankle_angle_l	subtalar_angle_l	mtp_angle_l	crank_angle_l	lumbar_extension	lumbar_bending	lumbar_rotation	arm_flex_r	arm_add_r	arm_rot_r	elbow_flex_r	pro_sup_r	wrist_flex_r	wrist_dev_r	arm_flex_l	arm_add_l	arm_rot_l	elbow_flex_l	pro_sup_l	wrist_flex_l	wrist_dev_l
      2.50000000	    -22.50118088	     -9.90696901	     -3.69137706	      0.39431273	      1.15393721	     -0.19454673	      0.00000000	      0.50000000	      0.00000000	      0.25000000	     62.78552824	      7.26681844	     -4.19884477	    100.75223412	      1.75845821	     -8.75611364	    -11.18899691	      0.00000000	      0.00000000	     35.73439153	    -16.60623146	      5.84127901	     25.97467374	      0.45334358	    -15.93268652	     -2.78835893	      0.00000000	      0.00000000	    -52.46170223	      0.64599054	      1.76874085	     72.10375912	     -9.97307842	     61.93124144	     38.51439152	     58.56719352	      0.00000000	      0.00000000	     54.82938487	    -30.77795243	     28.38703937	     67.20854534	     53.27144097	      0.00000000	      0.00000000
      2.50500000	    -22.72284029	    -10.43684888	     -4.61336528	      0.39414481	      1.15286616	     -0.19585832	      0.00000000	      0.50000000	      0.00000000	      0.25000000	     64.37140618	      7.76729539	     -4.48550417	    102.06291541	      1.78133392	     -7.87927009	    -10.83185052	      0.00000000	      0.00000000	     34.39961435	    -17.65006068	      5.06466500	     24.37870484	      0.42548867	    -16.81254182	     -1.71219691	      0.00000000	      0.00000000	    -51.98322865	      1.26611561	      2.69914539	     72.22806905	     -9.73805841	     62.14388290	     38.38532554	     58.56676389	      0.00000000	      0.00000000	     54.28094186	    -30.96338969	     28.62083333	     66.75534215	     53.22996649	      0.00000000	      0.00000000
      2.51000000	    -22.56202090	    -10.76153183	     -5.93711999	      0.39465343	      1.15283080	     -0.19585510	      0.00000000	      0.50000000	      0.00000000	      0.25000000	     65.43634428	      8.76121531	     -4.27611305	    103.17145246	      1.80068154	     -6.96295832	     -9.72504122	      0.00000000	      0.00000000	     32.49650955	    -18.91728769	      2.84705932	     22.97861137	      0.40105243	    -17.48567120	      0.18091132	      0.00000000	      0.00000000	    -51.79654470	      1.47635247	      3.92206096	     73.17396049	     -8.84303304	     65.03860345	     35.74948909	     58.67870926	      0.00000000	      0.00000000	     54.76438960	    -30.69882547	     30.05662365	     64.18177499	     53.02178245	      0.00000000	      0.00000000
      2.51500000	    -22.58704051	    -11.00579042	     -7.00818384	      0.39515423	      1.15290485	     -0.19692421	      0.00000000	      0.50000000	      0.00000000	      0.25000000	     66.61750867	      9.34976052	     -4.18126872	    104.12265140	      1.81728309	     -5.97584642	     -8.86772008	      0.00000000	      0.00000000	     30.77649173	    -19.76357992	      1.12213230	     21.48642290	      0.37500882	    -18.40254297	      1.53418921	      0.00000000	      0.00000000	    -51.69602481	      1.83262469	      4.76488544	     73.39132081	     -8.49912456	     65.51340872	     35.55594715	     58.72993659	      0.00000000	      0.00000000	     54.10707877	    -31.02951667	     30.26700780	     63.86442357	     53.01239001	      0.00000000	      0.00000000
      2.52000000	    -22.54064625	    -11.15954413	     -7.96442386	      0.39562637	      1.15345416	     -0.19805026	      0.00000000	      0.50000000	      0.00000000	      0.25000000	     67.65109386	      9.83903657	     -4.04027379	    104.89411145	      1.83074761	     -5.01630914	     -8.20496111	      0.00000000	      0.00000000	     28.96594219	    -20.38349958	     -0.53441694	     19.95384035	      0.34826021	    -19.45187626	      2.85715220	      0.00000000	      0.00000000	    -51.68749475	      2.20636762	      5.43382555	     73.71055735	     -7.92762812	     66.14134830	     34.97535194	     58.75226350	      0.00000000	      0.00000000	     53.74744523	    -31.10795718	     30.46221614	     63.06269850	     52.91914158	      0.00000000	      0.00000000
      2.52500000	    -22.77783571	    -11.37149433	     -8.69724800	      0.39581819	      1.15386006	     -0.19942878	      0.00000000	      0.50000000	      0.00000000	      0.25000000	     68.93708189	     10.15023113	     -4.19239371	    105.42858633	      1.84007596	     -4.42486094	     -7.83319819	      0.00000000	      0.00000000	     27.67849747	    -20.87417564	     -1.60551485	     18.59421350	      0.32453025	    -20.78466624	      3.77737622	      0.00000000	      0.00000000	    -51.51605222	      2.85346007	      5.98205883	     73.99330922	     -7.43434902	     66.40758194	     34.82751051	     58.77129483	      0.00000000	      0.00000000	     53.24672127	    -31.05053915	     30.80654382	     62.50622441	     52.87926236	      0.00000000	      0.00000000
      2.53000000	    -22.44644063	    -11.11777796	     -9.79943276	      0.39698860	      1.15571412	     -0.20031230	      0.00000000	      0.50000000	      0.00000000	      0.25000000	     69.46040135	     10.70957918	     -3.52420282	    105.79561269	      1.84648178	     -3.52307834	     -7.02835818	      0.00000000	      0.00000000	     25.40457067	    -21.06692205	     -4.13965948	     17.04818797	      0.29754701	    -22.16920728	      5.11602475	      0.00000000	      0.00000000	    -51.81353692	      2.73048553	      6.46127980	     74.35344076	     -6.65655858	     67.31955858	     33.60511662	     58.75802042	      0.00000000	      0.00000000	     53.42424631	    -30.70878692	     31.11954149	     60.75484260	     52.64083902	      0.00000000	      0.00000000
      2.53500000	    -22.59745739	    -11.25498323	    -10.35306990	      0.39764587	      1.15711586	     -0.20211638	      0.00000000	      0.50000000	      0.00000000	      0.25000000	     70.38575055	     10.88881274	     -3.59924164	    105.89624827	      1.84823820	     -2.80363160	     -6.68623497	      0.00000000	      0.00000000	     24.18492972	    -21.30153859	     -5.32479631	     15.86489572	      0.27689467	    -23.84314991	      5.73377214	      0.00000000	      0.00000000	    -51.76629086	      3.41832229	      6.90748671	     74.58487778	     -6.28813755	     67.67660303	     33.29562077	     58.77507763	      0.00000000	      0.00000000	     53.15108721	    -30.53590845	     31.26017233	     59.82335452	     52.51826875	      0.00000000	      0.00000000
      2.54000000	    -22.31563748	    -10.99569257	    -11.04586985	      0.39847130	      1.15938710	     -0.20366484	      0.00000000	      0.50000000	      0.00000000	      0.25000000	     70.83052801	     11.06916117	     -3.13977760	    105.90546570	      1.84839907	     -2.05067241	     -6.07721807	      0.00000000	      0.00000000	     22.46377685	    -21.11143274	     -7.03499592	     14.82219052	      0.25869603	    -25.37861884	      6.15659579	      0.00000000	      0.00000000	    -52.04686050	      3.51385423	      7.49307995	     75.17261300	     -5.76401009	     69.16614959	     31.63512594	     58.80778334	      0.00000000	      0.00000000	     53.84323920	    -28.89880116	     31.16478466	     56.56402015	     52.02189128	      0.00000000	      0.00000000
      2.54500000	    -22.36974877	    -10.78419220	    -11.57893255	      0.39897929	      1.16126644	     -0.20499453	      0.00000000	      0.50000000	      0.00000000	      0.25000000	     71.56580328	     11.21235886	     -2.86055384	    105.73992716	      1.84550988	     -1.40267463	     -5.81409788	      0.00000000	      0.00000000	     21.41021170	    -20.92308944	     -8.23805751	     14.07621528	      0.24567630	    -26.92339464	      6.30814845	      0.00000000	      0.00000000	    -52.15413634	      3.79152781	      7.56557417	     75.36945766	     -5.53939623	     69.21135803	     31.87519120	     58.84136390	      0.00000000	      0.00000000	     53.58251205	    -28.91575929	     31.03119481	     55.93033397	     51.92373483	      0.00000000	      0.00000000
